HIERARCHY
ROOT Hips
{
  OFFSET 0 0 0
  CHANNELS 6 Xposition Yposition Zposition Zrotation Yrotation Xrotation
  JOINT LeftThigh
  {
    OFFSET 8.509551 0 -5.988202
    CHANNELS 3 Zrotation Yrotation Xrotation
    JOINT LeftLeg
    {
      OFFSET 0 0 -42.862921
      CHANNELS 3 Zrotation Yrotation Xrotation
      JOINT LeftFoot
      {
        OFFSET 0 0 -39.825843
        CHANNELS 3 Zrotation Yrotation Xrotation
        End Site
        {
          OFFSET 0 -13.487303 -5.068483
        }
      }
    }
  }
  JOINT RightThigh
  {
    OFFSET -8.509551 0 -5.988202
    CHANNELS 3 Zrotation Yrotation Xrotation
    JOINT RightLeg
    {
      OFFSET 0 0 -42.862921
      CHANNELS 3 Zrotation Yrotation Xrotation
      JOINT RightFoot
      {
        OFFSET 0 0 -39.825843
        CHANNELS 3 Zrotation Yrotation Xrotation
        End Site
        {
          OFFSET 0 -13.487303 -5.068483
        }
      }
    }
  }
  JOINT SpineLow
  {
    OFFSET 0 0 4.775281
    CHANNELS 3 Zrotation Yrotation Xrotation
    JOINT SpineMid
    {
      OFFSET 0 0 13.052753
      CHANNELS 3 Zrotation Yrotation Xrotation
      JOINT Chest
      {
        OFFSET 0 0 13.052753
        CHANNELS 3 Zrotation Yrotation Xrotation
        JOINT LeftShoulder
        {
          OFFSET 7.640449 1.432584 9.550562
          CHANNELS 3 Zrotation Yrotation Xrotation
          JOINT LeftArm
          {
            OFFSET 9.264045 0 4.297753
            CHANNELS 3 Zrotation Yrotation Xrotation
            JOINT LeftForearm
            {
              OFFSET 0 0 26.078764
              CHANNELS 3 Zrotation Yrotation Xrotation
              JOINT LeftHand
              {
                OFFSET 0 0 25.497135
                CHANNELS 3 Zrotation Yrotation Xrotation
              }
            }
          }
        }
        JOINT RightShoulder
        {
          OFFSET -7.640449 1.432584 9.550562
          CHANNELS 3 Zrotation Yrotation Xrotation
          JOINT RightArm
          {
            OFFSET -9.264045 0 4.297753
            CHANNELS 3 Zrotation Yrotation Xrotation
            JOINT RightForearm
            {
              OFFSET 0 0 -26.078764
              CHANNELS 3 Zrotation Yrotation Xrotation
              JOINT RightHand
              {
                OFFSET 0 0 -25.497135
                CHANNELS 3 Zrotation Yrotation Xrotation
              }
            }
          }
        }
        JOINT Neck
        {
          OFFSET 0 0 15.280899
          CHANNELS 3 Zrotation Yrotation Xrotation
          JOINT Head
          {
            OFFSET 0 0 11.460674
            CHANNELS 3 Zrotation Yrotation Xrotation
            End Site
            {
              OFFSET 0 0 7.325843
            }
          }
        }
      }
    }
  }
}
MOTION
Frames: 12
Frame Time: 0.01
7.866937  91.625641  -3.577518  13.961329  83.175376  -81.068581  8.684169  -17.423915  8.557722  -7.010657  2.124499  2.048089  1.950135  9.446975  -1.31062  -10.390452  16.343817  4.929131  -1.068953  2.188085  3.468283  6.201608  -12.224914  0.067094  -0.499338  -0.046881  0.468334  -1.365742  -0.118463  1.28105  -1.365742  -0.118463  1.281049  -1.345858  11.806894  15.945803  134.982255  30.971341  171.082674  -13.726761  -4.899015  48.727686  78.888734  -13.589948  -34.010276  4.561943  -9.528022  11.375658  59.808886  38.801307  12.094907  -3.973981  21.873458  -44.219029  90.610925  -12.890067  35.42619  -8.877284  1.760018  -2.337444  -6.650824  1.354328  -1.727803  
7.91645814722905  91.622589  -3.66723694380963  14.112562  83.129564  -80.909972  8.665173  -17.370926  8.566922  -7.038272  2.10505  2.057216  2.018722  9.437718  -1.328722  -10.486859  16.507102  4.884342  -1.087414  2.082209  3.466933  6.339152  -12.253011  -0.015563  -0.498546  -0.039325  0.470666  -1.363432  -0.09778  1.287269  -1.363432  -0.09778  1.287269  -1.38787  11.763941  15.923044  134.878224  30.99161  171.036607  -13.814526  -4.879566  48.705817  78.840438  -13.611465  -33.940472  4.573642  -9.552797  11.332045  59.715707  38.841388  12.127111  -4.039599  21.872565  -44.367953  90.576326  -12.8908  35.506513  -8.90306  1.769919  -2.332485  -6.670124  1.361785  -1.723865  
7.90905124745885  91.617096  -3.73937136209635  14.14122  83.033887  -80.859992  8.66197  -17.304933  8.580016  -6.878331  2.05615  2.127604  2.024177  9.467876  -1.37254  -10.51778  16.617112  4.770171  -1.007547  2.003381  3.515175  6.336395  -12.263133  -0.067076  -0.491535  -0.036028  0.472454  -1.344207  -0.088868  1.292077  -1.344207  -0.088868  1.292077  -1.450952  11.763375  15.885611  134.861918  31.018279  171.049576  -13.892636  -4.861484  48.698146  78.895443  -13.526519  -34.001359  4.548242  -9.523797  11.266713  59.712433  38.836028  12.228138  -4.131414  21.865524  -44.542615  90.518325  -12.836145  35.556071  -8.86579  1.82658  -2.348677  -6.641877  1.404382  -1.735283  
7.91026477395215  91.608658  -3.76893471308218  14.321722  83.005697  -80.667746  8.681978  -17.269317  8.583496  -6.927382  2.043014  2.124563  2.057137  9.480133  -1.402214  -10.519389  16.676896  4.746529  -1.099848  1.982649  3.490964  6.423126  -12.289861  -0.113727  -0.491595  -0.029454  0.471028  -1.344241  -0.070928  1.288045  -1.344241  -0.070928  1.288045  -1.501118  11.736495  15.878149  134.750201  31.050927  170.9953  -13.969875  -4.849148  48.67586  78.850674  -13.540183  -33.925687  4.554865  -9.547593  11.23282  59.693777  38.864641  12.301965  -4.256519  21.852095  -44.684653  90.495617  -12.859283  35.609812  -8.886885  1.849469  -2.332315  -6.657642  1.421397  -1.722612  
7.85346191381328  91.598236  -3.79252736650723  14.406941  82.933937  -80.558937  8.728812  -17.231321  8.582605  -6.836132  2.021936  2.170201  2.058275  9.514275  -1.443805  -10.313215  16.693869  4.678811  -1.276105  1.968907  3.550396  6.446282  -12.301851  -0.156239  -0.486418  -0.02771  0.465191  -1.330051  -0.06638  1.272051  -1.330051  -0.06638  1.272051  -1.563684  11.762441  15.880799  134.735195  31.084684  171.001528  -14.037451  -4.848112  48.674944  78.921391  -13.42435  -33.96801  4.516261  -9.505577  11.211942  59.784922  38.841313  12.422108  -4.413901  21.853523  -44.799774  90.432727  -12.851485  35.601596  -8.851599  1.928151  -2.321015  -6.630863  1.480122  -1.713084  
7.85720982345872  91.586853  -3.81693442569072  14.586545  82.917857  -80.367839  8.777174  -17.221183  8.584635  -6.910623  2.033088  2.158288  2.077187  9.528649  -1.476954  -10.143338  16.729156  4.712876  -1.575678  1.961929  3.524657  6.567912  -12.317742  -0.20123  -0.495952  -0.020087  0.454842  -1.355957  -0.045574  1.243618  -1.355957  -0.045574  1.243618  -1.541482  11.742785  15.921565  134.638498  31.13289  170.937796  -14.076434  -4.84494  48.66158  78.904929  -13.424359  -33.900045  4.567982  -9.534358  11.245204  59.804593  38.866979  12.496065  -4.578643  21.831471  -44.91258  90.38303  -12.869369  35.594549  -8.829862  1.95471  -2.273018  -6.614592  1.499268  -1.676759  
7.81303423450315  91.57296  -3.81580875540538  14.71258  82.862785  -80.215321  8.849456  -17.210593  8.576243  -6.835828  2.042621  2.192947  2.063925  9.56423  -1.509823  -9.877158  16.728434  4.723517  -1.820656  1.945896  3.492856  6.60724  -12.308637  -0.206737  -0.499389  -0.026047  0.446926  -1.365459  -0.061963  1.222107  -1.365459  -0.061963  1.222107  -1.557118  11.838459  15.922673  134.659764  31.183189  170.952153  -14.071972  -4.848793  48.672797  78.994788  -13.274492  -34.044553  4.553707  -9.425988  11.240413  59.945906  38.826691  12.601118  -4.796488  21.795438  -45.012117  90.283512  -12.871013  35.580868  -8.78949  2.077151  -2.275852  -6.583768  1.591009  -1.677225  
7.81247553157297  91.558014  -3.79405001692195  14.982605  82.862203  -79.93782  8.897974  -17.209911  8.586044  -6.908943  2.072897  2.173134  2.061776  9.577951  -1.543378  -9.631274  16.707972  4.81635  -2.183042  1.98868  3.423053  6.690527  -12.292307  -0.2342  -0.504062  -0.020847  0.441236  -1.378131  -0.047784  1.206448  -1.378131  -0.047784  1.206448  -1.559397  11.853859  15.929475  134.579752  31.249695  170.894178  -14.056228  -4.8633  48.660587  78.982224  -13.261136  -34.042393  4.565058  -9.423558  11.247132  59.95885  38.85051  12.662572  -5.012554  21.724604  -45.119616  90.24905  -12.90012  35.658082  -8.786452  2.10266  -2.25675  -6.581441  1.609859  -1.662536  
7.78108525530721  91.541672  -3.8043894071227  15.19727  82.829762  -79.706499  8.980069  -17.214598  8.588166  -6.862952  2.107381  2.186492  2.028537  9.604948  -1.572231  -9.397071  16.731325  4.864871  -2.401919  1.963882  3.343491  6.701854  -12.2575  -0.218538  -0.502344  -0.017572  0.44258  -1.373376  -0.038836  1.210052  -1.373376  -0.038836  1.210052  -1.596256  11.895964  15.88119  134.592082  31.305936  170.917406  -14.024472  -4.876412  48.664454  79.037469  -13.088956  -34.237021  4.509028  -9.369602  11.192957  60.086114  38.811016  12.744982  -5.241316  21.668754  -45.166994  90.168274  -12.878823  35.73621  -8.784392  2.176017  -2.292068  -6.57945  1.665391  -1.687964  
7.77958229683953  91.526337  -3.76843252759144  15.505725  82.855303  -79.411734  9.00492  -17.222811  8.624562  -6.941092  2.143908  2.166614  2.024984  9.618795  -1.608639  -9.142592  16.698632  5.005491  -2.726812  2.007812  3.252026  6.716496  -12.21138  -0.232028  -0.510529  -0.012895  0.445205  -1.395663  -0.025846  1.217132  -1.395663  -0.025846  1.217132  -1.592101  11.911921  15.874159  134.555274  31.381477  170.89376  -14.015439  -4.87836  48.666935  79.003983  -13.055977  -34.217137  4.545739  -9.366408  11.174173  60.028486  38.834482  12.769645  -5.422729  21.616051  -45.250191  90.12784  -12.903791  35.868531  -8.781777  2.183931  -2.299442  -6.577428  1.671424  -1.69339  
7.77385329059197  91.514259  -3.79007519165524  15.783591  82.838582  -79.130736  9.094425  -17.221716  8.636663  -6.95498  2.178989  2.167827  2.031193  9.650253  -1.621908  -8.886489  16.724372  5.094122  -3.038096  2.017991  3.169595  6.760674  -12.180916  -0.221342  -0.524424  -0.013426  0.444424  -1.433652  -0.027059  1.215015  -1.433652  -0.027059  1.215015  -1.534561  11.988601  15.87736  134.627547  31.448022  170.963627  -13.965132  -4.916821  48.628289  79.001087  -12.913147  -34.36735  4.624224  -9.29672  11.155018  60.042787  38.795265  12.828874  -5.634441  21.602466  -45.289549  90.06485  -12.819447  35.938398  -8.717837  2.259777  -2.328595  -6.529031  1.728493  -1.714381  
7.77799829074501  91.505058  -3.74926396549983  16.146123  82.8758  -78.787602  9.111491  -17.205531  8.675772  -7.056272  2.196028  2.156941  2.048372  9.668107  -1.656798  -8.640708  16.690624  5.243805  -3.33035  2.065011  3.085053  6.746031  -12.118645  -0.22706  -0.537775  -0.010816  0.446021  -1.470096  -0.019645  1.219325  -1.470097  -0.019645  1.219325  -1.489406  12.023593  15.889929  134.619484  31.527609  170.967435  -13.963395  -4.904419  48.62911  78.945959  -12.882355  -34.316753  4.686689  -9.280211  11.161471  59.941343  38.820458  12.847556  -5.795508  21.57076  -45.384653  90.035066  -12.807041  36.018956  -8.698999  2.279046  -2.340862  -6.514772  1.74305  -1.723371  
